<svg width="24" height="25" viewBox="0 0 24 25" fill="none" xmlns="http://www.w3.org/2000/svg">
<path fill-rule="evenodd" clip-rule="evenodd" d="M11.9505 0.328613C8.63951 0.328613 5.95051 3.01761 5.95051 6.32861C5.95051 9.63961 8.63951 12.3286 11.9505 12.3286C15.2625 12.3286 17.9505 9.63961 17.9505 6.32861C17.9505 3.01761 15.2625 0.328613 11.9505 0.328613ZM11.9505 2.32861C14.1585 2.32861 15.9505 4.12061 15.9505 6.32861C15.9505 8.53661 14.1585 10.3286 11.9505 10.3286C9.74351 10.3286 7.95051 8.53661 7.95051 6.32861C7.95051 4.12061 9.74351 2.32861 11.9505 2.32861Z" fill="#0066CC"/>
<path fill-rule="evenodd" clip-rule="evenodd" d="M15.2935 22.5506L16.8285 24.0856C17.6095 24.8666 18.8765 24.8666 19.6575 24.0856L23.7075 20.0356C24.0975 19.6456 24.0975 19.0116 23.7075 18.6216C23.3175 18.2316 22.6835 18.2316 22.2935 18.6216L18.2435 22.6716C17.5855 22.0146 16.7075 21.1366 16.7075 21.1366C16.3175 20.7456 15.6835 20.7456 15.2935 21.1366C14.9035 21.5266 14.9035 22.1606 15.2935 22.5506Z" fill="#0066CC"/>
<path fill-rule="evenodd" clip-rule="evenodd" d="M1.99651 23.3716C2.47751 18.3006 6.75451 14.3286 11.9505 14.3286C13.4825 14.3286 14.9345 14.6736 16.2325 15.2906C16.7315 15.5276 17.3285 15.3146 17.5655 14.8166C17.8025 14.3176 17.5895 13.7206 17.0915 13.4846C15.5325 12.7436 13.7895 12.3286 11.9505 12.3286C5.71451 12.3286 0.583507 17.0966 0.00450677 23.1826C-0.0474932 23.7326 0.356507 24.2206 0.905507 24.2726C1.45551 24.3256 1.94351 23.9216 1.99651 23.3716Z" fill="#0066CC"/>
</svg>
