<svg width="26" height="25" viewBox="0 0 26 25" fill="none" xmlns="http://www.w3.org/2000/svg">
<path d="M16.4141 0.349609C17.4311 0.349609 18.3883 0.747107 19.1074 1.46777L23.9766 6.34961L24.1084 6.4873C24.7443 7.19034 25.0928 8.09337 25.0928 9.04883V15.9512C25.0928 16.9066 24.7443 17.8097 24.1084 18.5127L23.9766 18.6504L22.1318 20.498L22.1328 20.499L22.0273 20.6045L21.9219 20.7109L21.9209 20.71L19.1074 23.5322C18.3883 24.2529 17.4311 24.6504 16.4141 24.6504H9.52832C8.5748 24.6504 7.67405 24.3006 6.97266 23.6631L6.83496 23.5322L1.96582 18.6504C1.24668 17.9295 0.849609 16.9705 0.849609 15.9512V9.04883C0.849609 8.02951 1.24668 7.07049 1.96582 6.34961L6.83496 1.46777L6.97266 1.33691C7.67405 0.699397 8.5748 0.349609 9.52832 0.349609H16.4141ZM9.52832 2.11719C9.05027 2.11719 8.5971 2.27968 8.23242 2.58008L8.08203 2.71777L3.21289 7.59863C2.82628 7.9859 2.61328 8.5008 2.61328 9.04883V15.9512C2.61328 16.4992 2.82623 17.0138 3.21289 17.4014L8.08203 22.2822L8.23242 22.4199C8.59692 22.7203 9.05026 22.8828 9.52832 22.8828H16.4141C16.9604 22.8828 17.4737 22.6698 17.8604 22.2822L20.7803 19.3555L20.8867 19.249L22.7295 17.4014L22.8662 17.25C23.1658 16.8846 23.3291 16.4306 23.3291 15.9512V9.04883C23.3291 8.5694 23.1659 8.11558 22.8662 7.75L22.7295 7.59863L17.8604 2.71777C17.474 2.33025 16.9604 2.11719 16.4141 2.11719H9.52832Z" fill="#C92323" stroke="#C92323" stroke-width="0.3"/>
<path d="M13.9956 6.71997H11.9467V14.407H13.9956V6.71997Z" fill="#C92323"/>
<path d="M13.9956 16.5781H11.9467V18.2798H13.9956V16.5781Z" fill="#C92323"/>
</svg>
