<svg width="26" height="25" viewBox="0 0 26 25" fill="none" xmlns="http://www.w3.org/2000/svg">
<path d="M22.6006 3.2998C24.0339 3.30004 25.2 4.46613 25.2002 5.89941V18.2432C25.2001 19.6765 24.0339 20.8425 22.6006 20.8428H3.39941C1.96607 20.8425 0.799947 19.6765 0.799805 18.2432V5.89941C0.800043 4.46613 1.96613 3.30004 3.39941 3.2998H22.6006ZM1.88574 18.2432C1.88588 19.0782 2.56441 19.7576 3.39941 19.7578H22.6006C23.4356 19.7576 24.1145 19.0778 24.1143 18.2432V9.18555H1.88574V18.2432ZM3.39941 4.38574C2.5645 4.38598 1.88598 5.06481 1.88574 5.89941V6.04297H24.1143V5.89941C24.114 5.06447 23.4355 4.38598 22.6006 4.38574H3.39941Z" fill="#14CD4B" stroke="#14CD4B" stroke-width="0.4"/>
<path d="M8 13.5C8.55228 13.5 9 13.0523 9 12.5C9 11.9477 8.55228 11.5 8 11.5C7.44772 11.5 7 11.9477 7 12.5C7 13.0523 7.44772 13.5 8 13.5Z" fill="#14CD4B"/>
<path d="M17 13.5C17.5523 13.5 18 13.0523 18 12.5C18 11.9477 17.5523 11.5 17 11.5C16.4477 11.5 16 11.9477 16 12.5C16 13.0523 16.4477 13.5 17 13.5Z" fill="#14CD4B"/>
<path d="M15.573 15.5C15.3362 15.5 15.1442 15.6676 15.1442 15.8752C15.1442 16.9092 14.1832 17.7504 13.0009 17.7504C11.8186 17.7504 10.8577 16.9096 10.8577 15.8752C10.8577 15.668 10.6661 15.5 10.4288 15.5C10.1916 15.5 10 15.6676 10 15.8752C10 17.3224 11.3459 18.5 13 18.5C14.6541 18.5 16 17.3224 16 15.8752C16.0018 15.668 15.8098 15.5 15.573 15.5Z" fill="#14CD4B"/>
</svg>
