<svg width="26" height="25" viewBox="0 0 26 25" fill="none" xmlns="http://www.w3.org/2000/svg">
<path d="M10.1209 11.6206C10.1867 11.5551 10.2884 11.547 10.3631 11.5962L10.3934 11.6206C10.4593 11.6866 10.4674 11.7889 10.4178 11.8638L10.3934 11.894L9.84455 12.4429L9.95002 12.5493L10.3934 12.9927C10.4592 13.0586 10.4672 13.16 10.4178 13.2349L10.3934 13.2651C10.3549 13.3029 10.3057 13.3218 10.2567 13.3218C10.2076 13.3217 10.1583 13.303 10.1199 13.2651H10.1209L9.67756 12.8218L9.57111 12.7163L9.02229 13.2651C8.98382 13.303 8.93465 13.3218 8.88557 13.3218C8.84825 13.3218 8.81136 13.3109 8.77912 13.2896L8.74885 13.2651C8.68329 13.1993 8.67527 13.0977 8.72443 13.0229L8.74885 12.9927L9.29865 12.4429L9.19221 12.3374L8.74885 11.894C8.683 11.8281 8.6749 11.7257 8.72443 11.6509L8.74885 11.6206C8.81474 11.5547 8.91715 11.5467 8.99201 11.5962L9.02229 11.6206L9.46564 12.064L9.57111 12.1704L10.1209 11.6206Z" fill="#C92323" stroke="#C92323" stroke-width="0.3"/>
<path d="M16.9782 11.6204C17.044 11.5548 17.1456 11.5467 17.2204 11.5959L17.2506 11.6204C17.3166 11.6863 17.3247 11.7886 17.275 11.8635L17.2506 11.8938L16.7018 12.4426L16.8073 12.5491L17.2506 12.9924C17.3165 13.0583 17.3245 13.1598 17.275 13.2346L17.2506 13.2649C17.2122 13.3026 17.1629 13.3215 17.1139 13.3215C17.0644 13.3214 17.0152 13.3027 16.9772 13.2649H16.9782L16.5348 12.8215L16.4284 12.7161L15.8795 13.2649C15.8411 13.3027 15.7919 13.3215 15.7428 13.3215C15.7055 13.3215 15.6686 13.3107 15.6364 13.2893L15.6061 13.2649C15.5405 13.1991 15.5325 13.0974 15.5817 13.0227L15.6061 12.9924L16.1559 12.4426L16.0495 12.3372L15.6061 11.8938C15.5402 11.8279 15.5322 11.7255 15.5817 11.6506L15.6061 11.6204C15.672 11.5545 15.7744 11.5465 15.8493 11.5959L15.8795 11.6204L16.3229 12.0637L16.4284 12.1702L16.9782 11.6204Z" fill="#C92323" stroke="#C92323" stroke-width="0.3"/>
<path d="M22.6006 3.2998C24.0339 3.30004 25.2 4.46613 25.2002 5.89941V18.2432C25.2001 19.6765 24.0339 20.8425 22.6006 20.8428H3.39941C1.96607 20.8425 0.799947 19.6765 0.799805 18.2432V5.89941C0.800043 4.46613 1.96613 3.30004 3.39941 3.2998H22.6006ZM1.88574 18.2432C1.88588 19.0782 2.56441 19.7576 3.39941 19.7578H22.6006C23.4356 19.7576 24.1145 19.0778 24.1143 18.2432V9.18555H1.88574V18.2432ZM3.39941 4.38574C2.5645 4.38598 1.88598 5.06481 1.88574 5.89941V6.04297H24.1143V5.89941C24.114 5.06447 23.4355 4.38598 22.6006 4.38574H3.39941Z" fill="#C92323" stroke="#C92323" stroke-width="0.4"/>
<path d="M17.6537 16C17.1641 16 16.9053 16.1869 16.7166 16.3231C16.5471 16.4457 16.4637 16.4999 16.2691 16.4999C16.0745 16.4999 15.9911 16.4457 15.8216 16.3231C15.633 16.1869 15.3741 16 14.8846 16C14.395 16 14.1362 16.1869 13.9475 16.3231C13.778 16.4457 13.6946 16.4999 13.5 16.4999C13.3054 16.4999 13.222 16.4457 13.0525 16.3231C12.8638 16.1869 12.605 16 12.1154 16C11.6259 16 11.367 16.1869 11.1784 16.3231C11.0089 16.4457 10.9255 16.4999 10.7309 16.4999C10.5363 16.4999 10.4529 16.4457 10.2834 16.3231C10.0947 16.1869 9.8359 16 9.34632 16C9.1547 16 9 16.1117 9 16.2501C9 16.3884 9.1547 16.5001 9.34632 16.5001C9.5409 16.5001 9.62434 16.5543 9.79381 16.6769C9.98248 16.8131 10.2413 17 10.7309 17C11.2205 17 11.4793 16.8131 11.668 16.6769C11.8374 16.5543 11.9209 16.5001 12.1154 16.5001C12.31 16.5001 12.3935 16.5543 12.5629 16.6769C12.7516 16.8131 13.0104 17 13.5 17C13.9896 17 14.2484 16.8131 14.4371 16.6769C14.6065 16.5543 14.69 16.5001 14.8846 16.5001C15.0791 16.5001 15.1626 16.5543 15.332 16.6769C15.5207 16.8131 15.7795 17 16.2691 17C16.7587 17 17.0175 16.8131 17.2062 16.6769C17.3757 16.5543 17.4591 16.5001 17.6537 16.5001C17.8453 16.5001 18 16.3884 18 16.2501C18 16.1117 17.8453 16 17.6537 16Z" fill="#C92323"/>
</svg>
