<svg xmlns="http://www.w3.org/2000/svg" version="1.1" xmlns:xlink="http://www.w3.org/1999/xlink" width="674" height="674"><svg width="674" height="674" viewBox="0 0 674 674" fill="none" xmlns="http://www.w3.org/2000/svg">
<rect width="674" height="674" fill="#1A00F3"></rect>
<path d="M192.035 337.079C192.035 353.21 205.111 366.288 221.244 366.288H263.951L200.591 433.052C189.183 444.459 189.183 462.952 200.591 474.358C211.996 485.766 230.489 485.763 241.897 474.358L308.101 404.75V453.705C308.101 469.837 321.177 482.913 337.307 482.913C353.439 482.913 366.515 469.837 366.515 453.705V307.871H221.244C205.111 307.871 192.035 320.949 192.035 337.079Z" fill="#F7EEC6"></path>
<path d="M482.58 336.923C482.58 320.793 469.504 307.715 453.371 307.715H410.664L474.024 240.951C485.432 229.543 485.432 211.051 474.024 199.645C462.619 188.237 444.126 188.237 432.718 199.645L366.514 269.253V220.298C366.514 204.165 353.438 191.089 337.308 191.089C321.176 191.089 308.1 204.165 308.1 220.298V366.132H453.371C469.504 366.132 482.58 353.053 482.58 336.923Z" fill="#F7EEC6"></path>
<ellipse cx="337.307" cy="337.08" rx="29.2084" ry="29.2073" fill="#1A00F3"></ellipse>
</svg><style>@media (prefers-color-scheme: light) { :root { filter: none; } }
@media (prefers-color-scheme: dark) { :root { filter: none; } }
</style></svg>