
<svg width="966" height="264" viewBox="0 0 966 264" fill="none" xmlns="http://www.w3.org/2000/svg">
<g clip-path="url(#clip0_166_147)">
<path d="M157.33 105.31V131.64C157.33 117.25 145.78 105.55 131.45 105.31H157.33Z" fill="#1A00F3"/>
<path d="M157.33 131.64V236.81C157.33 251.35 145.54 263.14 131 263.14C116.46 263.14 104.66 251.35 104.66 236.81V192.66L44.96 255.43C34.68 265.71 18 265.71 7.72 255.43C-2.56 245.15 -2.57 228.47 7.72 218.18L64.85 157.98H26.34C11.8 157.98 0 146.19 0 131.64C0 117.09 11.8 105.31 26.34 105.31H130.55C116.21 105.54 104.66 117.25 104.66 131.64C104.66 145.28 115.02 156.5 128.3 157.84H133.69C146.97 156.5 157.33 145.28 157.33 131.64Z" fill="#1A00F3"/>
<path d="M104.66 157.84V131.64C104.66 145.28 115.02 156.5 128.3 157.84H104.66Z" fill="#1A00F3"/>
<path d="M261.99 131.5C261.99 146.05 250.2 157.84 235.65 157.84H133.69C146.97 156.5 157.33 145.28 157.33 131.64C157.33 117.25 145.78 105.55 131.45 105.31H130.55C116.21 105.54 104.66 117.25 104.66 131.64V26.34C104.66 11.79 116.45 0 131 0C145.55 0 157.33 11.79 157.33 26.34V70.48L217.03 7.71C227.32 -2.57 243.99 -2.57 254.28 7.71C264.56 18 264.56 34.68 254.28 44.96L197.14 105.16H235.65C250.2 105.16 261.99 116.96 261.99 131.5Z" fill="#1A00F3"/>
<path d="M133.69 157.84C132.81 157.93 131.91 157.98 131 157.98C130.09 157.98 129.19 157.93 128.3 157.84H133.69Z" fill="#F7EEC6"/>
<path d="M326.51 63.86H348.84L348.28 78.52H348.39C350.98 69.27 356.74 62.96 367.22 62.96C377.7 62.96 384.36 68.15 385.72 77.85H385.83C388.09 69.05 394.18 62.96 404.67 62.96C417.19 62.96 423.5 70.52 423.5 84.05V119.58H401.17V89.69C401.17 84.5 398.8 81.57 394.52 81.57C389.56 81.57 386.06 85.4 386.06 93.41V119.57H363.73V89.68C363.73 84.49 361.48 81.56 357.08 81.56C352.34 81.56 348.85 85.51 348.85 93.63V119.57H326.52V63.86H326.51Z" fill="#1A00F3"/>
<path d="M434.01 63.86H456.34L455.66 79.4199H455.89C458.15 69.4999 463.45 62.95 474.16 62.95C485.89 62.95 491.53 70.1699 491.53 85.1699C491.53 89.2299 491.19 94.8699 490.97 98.0299H471.8C472.03 95.4399 472.03 92.3899 472.03 90.6999C472.03 84.2699 469.66 81.68 465.49 81.68C459.96 81.68 456.36 86.3 456.36 96.23V119.58H434.03V63.8699L434.01 63.86Z" fill="#1A00F3"/>
<path d="M541.4 84.2699C541.4 79.1999 538.24 76.5999 532.83 76.5999C527.42 76.5999 524.26 79.0799 523.25 85.7399H541.41V84.2699H541.4ZM560.46 94.87H522.91C523.47 102.88 526.74 105.92 532.83 105.92C537.91 105.92 541.06 103.89 541.4 99.15H560.46C560.23 112.35 550.42 120.46 531.81 120.46C510.27 120.46 500.46 108.96 500.46 92.2699C500.46 73.0999 512.53 62.95 532.04 62.95C549.75 62.95 560.46 71.75 560.46 89.68V94.87Z" fill="#1A00F3"/>
<path d="M571.99 41.87H590.82L594.65 51H594.88L598.71 41.87H617.55L606.16 58.9H583.38L571.99 41.87ZM568.38 106.27L592.29 80.89V80.66H569.28V63.86H620.03V76.94L595.9 102.65V102.76H620.03V119.56H568.38V106.25V106.27Z" fill="#1A00F3"/>
<path d="M666.98 99.5V98.03H655.48C651.76 98.03 649.61 99.84 649.61 102.54C649.61 105.92 652.32 107.84 656.83 107.84C663.15 107.84 666.98 104.8 666.98 99.49V99.5ZM629.31 104.24C629.31 95.44 635.29 89.01 649.16 89.01H666.98V84.95C666.98 79.76 664.27 77.51 658.41 77.51C653.45 77.51 650.74 79.77 650.74 83.6C650.74 83.83 650.74 84.73 650.85 85.86H631.34C631.11 84.73 631 83.38 631 82.14C631 70.3 640.36 62.97 659.53 62.97C679.72 62.97 689.3 71.99 689.3 86.77V119.59H666.97C667.31 117.22 667.65 112.48 667.65 108.99H667.54C665.85 115.98 660.32 120.49 649.95 120.49C636.19 120.49 629.31 113.84 629.31 104.25V104.24Z" fill="#1A00F3"/>
<path d="M328.65 190.7H337C337 198.14 341.51 202.54 353.13 202.54C364.75 202.54 370.16 199.04 370.16 193.07C370.16 190.81 369.48 188.67 366.66 187.32C364.07 186.08 358.2 185.4 351.32 184.73C342.19 183.94 336.66 182.81 333.28 180.33C330.23 178.07 328.66 174.01 328.66 169.95C328.66 159.46 338.25 152.69 353.13 152.69C369.82 152.69 376.81 160.02 376.81 172.54H368.46C368.35 164.19 363.38 160.36 353.46 160.36C343.54 160.36 337.67 163.86 337.67 169.38C337.67 171.64 338.01 174.34 341.28 175.7C343.99 176.83 349.51 177.5 356.84 178.3C365.52 179.2 369.81 179.99 373.64 182.13C377.36 184.27 379.17 188.56 379.17 192.73C379.17 203.67 370.15 210.21 353.23 210.21C334.51 210.21 328.64 201.41 328.64 190.7H328.65Z" fill="#1A00F3"/>
<path d="M437.81 181.56C437.81 168.93 430.37 160.81 418.64 160.81C406.91 160.81 399.47 168.93 399.47 181.56C399.47 194.19 406.91 202.09 418.64 202.09C430.37 202.09 437.81 194.08 437.81 181.56ZM390.45 181.56C390.45 163.97 401.39 152.69 418.64 152.69C435.89 152.69 446.83 163.97 446.83 181.56C446.83 199.15 435.89 210.21 418.64 210.21C401.39 210.21 390.45 199.04 390.45 181.56Z" fill="#1A00F3"/>
<path d="M460.93 131.15H469.95V209.3H460.93V131.15ZM486.87 153.59H495.89V209.3H486.87V153.59ZM486.53 135.1H496.23V146.49H486.53V135.1Z" fill="#1A00F3"/>
<path d="M558.14 182.13V179.31C558.14 168.03 550.36 160.81 538.07 160.81C526.45 160.81 519.01 169.49 519.01 181.11C519.01 193.52 526.45 202.09 537.96 202.09C550.25 202.09 558.15 194.31 558.15 182.13H558.14ZM509.98 181.11C509.98 164.53 520.36 152.69 537.27 152.69C548.89 152.69 555.99 157.43 558.02 164.76H558.13V131.15H567.15V209.3H558.13C558.47 204.34 558.58 199.38 558.69 194.41H558.47C556.33 204 548.89 210.2 536.48 210.2C520.35 210.2 509.98 198.47 509.98 181.1V181.11Z" fill="#1A00F3"/>
<path d="M624.34 185.96V185.17H602.46C593.33 185.17 589.72 187.88 589.72 193.29C589.72 198.7 594.91 202.54 603.7 202.54C616.33 202.54 624.34 196.11 624.34 185.96ZM581.25 193.29C581.25 185.4 586.78 178.63 601.66 178.63H624.33V174.57C624.33 164.98 618.69 160.36 607.3 160.36C597.04 160.36 591.4 164.19 591.4 171.75C591.4 172.09 591.4 172.88 591.51 173.78H583.17C583.06 172.99 582.94 171.41 582.94 170.4C582.94 159.35 592.41 152.69 607.53 152.69C623.88 152.69 633.36 160.81 633.36 175.36V209.31H624.34C624.45 206.72 624.68 201.53 624.79 196.12H624.68C622.76 204.69 615.77 210.22 601.9 210.22C589.27 210.22 581.26 203.79 581.26 193.3L581.25 193.29Z" fill="#1A00F3"/>
<path d="M648.58 153.59H657.6L657.38 169.72H657.49C660.08 160.02 665.84 152.69 677.79 152.69C689.74 152.69 696.96 161.04 696.96 174.46C696.96 178.29 696.62 182.35 696.4 184.38H688.17C688.4 182.69 688.62 179.87 688.62 176.37C688.62 166.11 684.79 160.81 675.65 160.81C664.26 160.81 657.61 170.74 657.61 184.61V209.31H648.59V153.6L648.58 153.59Z" fill="#1A00F3"/>
<path d="M710.49 153.59H719.51L719.28 168.59H719.39C722.44 158.89 730.22 152.69 743.52 152.69C758.18 152.69 766.87 161.15 766.87 174.46V209.31H757.85V176.38C757.85 166.91 752.44 160.82 740.48 160.82C727.74 160.82 719.5 168.6 719.5 181.91V209.31H710.48V153.6L710.49 153.59Z" fill="#1A00F3"/>
<path d="M827.21 181.56C827.21 168.93 819.77 160.81 808.04 160.81C796.31 160.81 788.87 168.93 788.87 181.56C788.87 194.19 796.31 202.09 808.04 202.09C819.77 202.09 827.21 194.08 827.21 181.56ZM779.84 181.56C779.84 163.97 790.78 152.69 808.04 152.69C825.3 152.69 836.23 163.97 836.23 181.56C836.23 199.15 825.29 210.21 808.04 210.21C790.79 210.21 779.84 199.04 779.84 181.56Z" fill="#1A00F3"/>
<path d="M846.72 190.7H855.07C855.07 198.14 859.58 202.54 871.2 202.54C882.82 202.54 888.23 199.04 888.23 193.07C888.23 190.81 887.55 188.67 884.74 187.32C882.15 186.08 876.28 185.4 869.4 184.73C860.26 183.94 854.74 182.81 851.36 180.33C848.31 178.07 846.74 174.01 846.74 169.95C846.74 159.46 856.33 152.69 871.21 152.69C887.9 152.69 894.89 160.02 894.89 172.54H886.55C886.44 164.19 881.47 160.36 871.55 160.36C861.63 160.36 855.76 163.86 855.76 169.38C855.76 171.64 856.1 174.34 859.37 175.7C862.08 176.83 867.6 177.5 874.93 178.3C883.61 179.2 887.9 179.99 891.73 182.13C895.45 184.27 897.26 188.56 897.26 192.73C897.26 203.67 888.24 210.21 871.32 210.21C852.6 210.21 846.73 201.41 846.73 190.7H846.72Z" fill="#1A00F3"/>
<path d="M913.59 188.89V161.48H904.34V153.59H911.78C913.58 153.59 914.26 152.69 914.49 149.75L914.94 140.95H922.61V153.58H942.8V161.47H922.61V188.31C922.61 196.77 925.32 201.84 933.66 201.84C937.49 201.84 941.1 201.16 942.34 200.71V208.38C940.65 209.06 937.38 209.74 932.87 209.74C919.34 209.74 913.59 201.17 913.59 188.88V188.89Z" fill="#1A00F3"/>
<path d="M955.66 153.59H964.68V209.3H955.66V153.59ZM955.32 135.1H965.02V146.49H955.32V135.1Z" fill="#1A00F3"/>
</g>
<defs>
<clipPath id="clip0_166_147">
<rect width="965.02" height="263.14" fill="white"/>
</clipPath>
</defs>
</svg>
