<?xml version="1.0" encoding="UTF-8" standalone="no"?>
<svg
   version="1.0"
   width="256.000000pt"
   height="256.000000pt"
   viewBox="0 0 256.000000 256.000000"
   preserveAspectRatio="xMidYMid meet"
   id="svg4"
   sodipodi:docname="it-srbija.rs.svg"
   inkscape:version="1.3.2 (091e20e, 2023-11-25)"
   xmlns:inkscape="http://www.inkscape.org/namespaces/inkscape"
   xmlns:sodipodi="http://sodipodi.sourceforge.net/DTD/sodipodi-0.dtd"
   xmlns="http://www.w3.org/2000/svg"
   xmlns:svg="http://www.w3.org/2000/svg">
  <defs
     id="defs4" />
  <sodipodi:namedview
     id="namedview4"
     pagecolor="#ffffff"
     bordercolor="#000000"
     borderopacity="0.25"
     inkscape:showpageshadow="2"
     inkscape:pageopacity="0.0"
     inkscape:pagecheckerboard="0"
     inkscape:deskcolor="#d1d1d1"
     inkscape:document-units="pt"
     inkscape:zoom="1"
     inkscape:cx="171"
     inkscape:cy="170.5"
     inkscape:window-width="1392"
     inkscape:window-height="1212"
     inkscape:window-x="0"
     inkscape:window-y="25"
     inkscape:window-maximized="0"
     inkscape:current-layer="svg4" />
  <g
     transform="translate(0.000000,256.000000) scale(0.100000,-0.100000)"
     fill="#000000"
     stroke="none"
     id="g4"
     style="fill:#0066ca;fill-opacity:1">
    <path
       d="M0 1280 l0 -1280 1280 0 1280 0 0 1280 0 1280 -1280 0 -1280 0 0 -1280z m956 1024 c96 -46 130 -168 71 -255 -36 -54 -82 -79 -144 -79 -63 0 -99 16 -141 64 -55 63 -53 158 6 228 48 57 138 75 208 42z m516 -9 c51 -38 58 -63 58 -199 l0 -126 109 0 c94 0 112 -3 135 -21 48 -38 38 -60 -93 -193 -65 -67 -124 -131 -130 -143 -6 -12 -11 -73 -11 -143 l0 -121 39 -41 c38 -41 39 -42 122 -47 140 -10 189 -57 189 -181 0 -133 -58 -180 -220 -180 -71 0 -105 5 -135 19 -48 22 -329 303 -344 344 -7 19 -11 187 -11 490 0 443 1 463 20 495 35 57 74 73 165 70 61 -2 86 -8 107 -23z m-436 -440 l25 -25 -3 -414 c-3 -401 -4 -415 -24 -442 -37 -51 -70 -68 -138 -72 -90 -6 -145 20 -175 80 -20 42 -21 58 -21 322 0 253 2 280 19 314 28 53 242 262 270 262 12 0 33 -11 47 -25z m-96 -1142 c36 -21 70 -71 70 -102 0 -19 -6 -21 -48 -21 -42 0 -50 3 -60 24 -15 33 -72 45 -107 22 -45 -30 -24 -68 48 -86 83 -21 127 -42 153 -73 23 -27 26 -38 22 -89 -7 -99 -71 -144 -194 -136 -88 5 -145 51 -160 126 l-6 32 51 0 c33 0 51 -4 51 -12 0 -27 43 -58 82 -58 52 0 78 15 78 45 0 30 -27 48 -94 64 -76 18 -121 46 -140 85 -39 82 1 167 93 197 39 13 126 3 161 -18z m430 -1 c102 -51 108 -201 10 -260 l-30 -19 38 -41 c23 -24 48 -42 60 -42 20 0 22 -5 22 -50 l0 -50 -45 0 c-53 0 -98 34 -151 117 -22 35 -40 53 -54 53 -18 0 -20 -6 -20 -85 l0 -85 -55 0 -55 0 0 240 0 240 123 0 c96 0 129 -4 157 -18z m435 8 c75 -28 101 -127 50 -188 l-24 -29 25 -12 c26 -11 54 -64 54 -102 0 -37 -31 -88 -68 -111 -32 -20 -53 -23 -169 -26 l-133 -4 0 241 0 241 119 0 c66 0 131 -4 146 -10z"
       id="path1"
       style="fill:#0166ca;fill-opacity:1" />
    <path
       d="M1200 580 l0 -60 58 0 c66 0 82 11 82 55 0 46 -26 65 -88 65 l-52 0 0 -60z"
       id="path2"
       style="fill:#0066ca;fill-opacity:1" />
    <path
       d="M1640 590 l0 -50 48 0 c53 0 92 21 92 50 0 34 -28 50 -86 50 l-54 0 0 -50z"
       id="path3"
       style="fill:#0066ca;fill-opacity:1" />
    <path
       d="M1640 395 l0 -55 58 0 c70 0 102 19 102 60 0 38 -23 50 -99 50 l-61 0 0 -55z"
       id="path4"
       style="fill:#0066ca;fill-opacity:1" />
  </g>
</svg>
