<svg width="177" height="55" viewBox="0 0 177 55" fill="none" xmlns="http://www.w3.org/2000/svg">
<g clip-path="url(#clip0_8_269)">
<path d="M20.8857 14.0837C21.0067 15.5257 21.9109 16.3592 23.4773 16.3592C24.7428 16.3592 25.7871 15.7911 25.7871 14.7756C25.7871 13.6782 24.582 13.3531 23.1351 13.0086C21.0052 12.5002 18.3739 11.85 18.3739 8.52033C18.3739 6.1032 20.3828 4.37647 23.2959 4.37647C26.209 4.37647 28.3182 6.14346 28.3993 8.84539H25.4862C25.3859 7.72854 24.582 7.01727 23.2354 7.01727C22.0495 7.01727 21.2869 7.58539 21.2869 8.41893C21.2869 9.47465 22.5126 9.78033 24.1204 10.165C26.0895 10.6526 28.7017 11.3639 28.7017 14.4908C28.7017 17.3344 26.5511 19 23.4581 19C20.2028 19 18.0936 17.1107 17.9727 14.0852H20.8857V14.0837Z" fill="black"/>
<path d="M30.3728 4.57927H36.1798C39.0324 4.57927 40.9219 6.42827 40.9219 9.06758C40.9219 11.1388 39.7566 12.6224 37.969 13.292L38.4513 14.0032C39.0737 14.9382 39.7979 15.9939 40.9823 15.9939C41.1431 15.9939 41.3039 15.973 41.444 15.9536V18.8583C41.0428 18.9597 40.6401 19 40.2994 19C37.9881 19 36.7432 17.0496 35.5382 15.1007L34.6547 13.6796H33.3891V18.7987H30.3758V4.57927H30.3728ZM33.3862 10.9971H35.817C37.0618 10.9971 37.8067 10.2456 37.8067 9.12871C37.8067 8.01186 37.0633 7.26032 35.817 7.26032H33.3862V10.9971Z" fill="black"/>
<path d="M43.1594 18.7972V4.57927H48.785C51.3367 4.57927 53.2453 5.87954 53.2453 8.23552C53.2453 9.59693 52.6229 10.7332 51.3972 11.2416C52.884 11.7292 53.9681 12.7044 53.9681 14.634C53.9681 17.2748 51.9193 18.7972 48.9458 18.7972H43.1594ZM46.1728 7.17831V10.2456H48.2422C49.608 10.2456 50.2113 9.65657 50.2113 8.70225C50.2113 7.74792 49.6287 7.17831 48.2629 7.17831H46.1728ZM46.1728 12.8461V16.1982H48.4635C50.1317 16.1982 50.8751 15.6703 50.8751 14.5117C50.8751 13.3531 50.1317 12.8461 48.4635 12.8461H46.1728Z" fill="black"/>
<path d="M58.6408 4.57927H55.6274V18.7972H58.6408V4.57927Z" fill="black"/>
<path d="M60.7633 16.1162C61.6881 16.1162 62.4109 15.7911 62.4109 14.4714V4.57927H65.4242V14.8979C65.4242 18.1068 63.5363 19.0015 61.2043 19.0015C60.722 19.0015 60.1792 18.9612 59.6969 18.9001V16.0162C60.0583 16.0774 60.4196 16.1176 60.7618 16.1176" fill="black"/>
<path d="M66.6839 18.7972V18.1873C66.6839 15.2424 67.7488 11.8903 68.8934 9.18985L70.8625 4.57927H74.8199L76.789 9.18985C78.1357 12.3585 78.9985 15.2424 78.9985 18.1873V18.7972H75.9851V18.1873C75.9851 17.3344 75.9055 16.5009 75.7432 15.6897H69.8359C69.6958 16.5024 69.5955 17.3344 69.5955 18.1873V18.7972H66.6824H66.6839ZM75.0412 13.0071C74.699 11.9305 74.4585 11.2193 74.0559 10.265L72.8508 7.42137H72.7697L71.5646 10.265C71.162 11.2193 70.9215 11.9305 70.5602 13.0071H75.0412Z" fill="black"/>
<path d="M2.33195 4.71645C3.6196 4.71645 4.66389 3.66073 4.66389 2.35897C4.66537 1.05572 3.62108 0 2.33195 0C1.04281 0 0 1.05572 0 2.35748C0 3.66073 1.04429 4.71645 2.33195 4.71645Z" fill="#0066CC"/>
<path d="M0 14.1493V16.9124C0 17.992 0.864339 18.8658 1.93223 18.8658H2.73314C3.79955 18.8658 4.66537 17.992 4.66537 16.9124V6.77869C4.66537 6.01821 3.7553 5.63648 3.22283 6.17478L0.566393 8.8603C0.203547 9.22712 0 9.72367 0 10.2411V14.1479V14.1493Z" fill="#0066CC"/>
<path d="M11.406 8.8603L14.0625 6.17478C14.5949 5.63648 14.2173 4.71645 13.4651 4.71645H10.8219V1.95338C10.8219 0.875294 9.95758 0 8.8897 0H8.08878C7.02237 0 6.15656 0.875294 6.15656 1.95338V4.71645H6.17573V13.3233C6.17573 13.8526 6.3837 14.3596 6.75392 14.7324L10.2747 18.2917C10.6375 18.6585 11.1287 18.8643 11.6405 18.8643H13.5728C14.6406 18.8643 15.505 17.9905 15.505 16.9109V16.1012C15.505 15.0217 14.6406 14.1479 13.5728 14.1479H12.7718C11.7054 14.1479 10.8396 13.2741 10.8396 12.1945V10.2411C10.8396 9.72367 11.0432 9.22563 11.406 8.8603Z" fill="#0066CC"/>
</g>
<path d="M1.64 33H6.04L8.32 39.42C8.6 40.2 8.9 41.26 9.16 42.34H9.24C9.5 41.26 9.82 40.22 10.1 39.42L12.36 33H16.74V47H13.74V39.02C13.74 37.82 13.78 37.12 13.9 35.92H13.82C13.62 37.1 13.42 37.96 13.12 38.82L10.72 45.6H7.54L5.14 38.82C4.84 37.96 4.64 37.1 4.44 35.92H4.36C4.48 37.12 4.52 37.82 4.52 39.02V47H1.64V33ZM19.8189 37H22.4389L22.6389 38.26C23.2789 37.26 24.1589 36.8 25.2389 36.8C27.3789 36.8 28.1789 38.66 28.1789 40.44C28.1789 40.72 28.1589 41.02 28.1389 41.24H25.2189C25.2389 41.08 25.2389 40.96 25.2389 40.8C25.2389 40.06 24.9989 39.36 24.1389 39.36C23.0789 39.36 22.7389 40.38 22.7389 41.34V47H19.8189V37ZM29.1352 41.98C29.1352 38.84 31.2152 36.8 34.2552 36.8C37.1752 36.8 39.0552 38.68 39.0552 41.54C39.0552 41.84 39.0352 42.18 38.9752 42.58H31.9752C32.1752 43.94 33.0552 44.8 34.2952 44.8C35.2752 44.8 36.0352 44.24 36.1952 43.42H39.1152C38.8352 45.68 36.8552 47.2 34.2352 47.2C31.1552 47.2 29.1352 45.08 29.1352 41.98ZM34.2952 39C33.2952 39 32.5152 39.6 32.1552 40.58H36.1752C36.0752 39.64 35.3352 39 34.2952 39ZM49.0694 47H40.4094V44.8L44.8494 39.6H40.6094V37H48.8694V39.2L44.4294 44.4H49.0694V47ZM41.1094 32.48H43.5294L44.6894 34.04L45.8494 32.48H48.2694V32.56L46.2094 35.48H43.1694L41.1094 32.56V32.48ZM50.3656 44.18C50.3656 42.34 51.8456 41.16 54.0456 41.16H56.6656V40.22C56.6656 39.38 56.0656 38.84 55.1056 38.84C53.9856 38.84 53.4656 39.56 53.4256 40.4H50.7456C50.8656 38.38 52.5456 36.8 55.2056 36.8C57.7456 36.8 59.5856 38.24 59.5856 40.52V47H56.9656L56.7656 45.6C56.4256 46.54 55.1456 47.2 53.7056 47.2C51.6856 47.2 50.3656 45.92 50.3656 44.18ZM53.3656 44.1C53.3656 44.74 53.8056 45.18 54.6256 45.18C55.8656 45.18 56.6456 44.18 56.6656 42.92H54.7056C53.8656 42.92 53.3656 43.42 53.3656 44.1ZM67.0086 43.64H69.7286C69.8486 44.6 70.5886 45 71.4886 45C72.2886 45 72.9486 44.7 72.9486 44.16C72.9486 43.6 72.1686 43.46 71.1886 43.3C69.5286 43.02 67.3086 42.66 67.3086 40C67.3086 38.02 69.1886 36.8 71.5686 36.8C74.0286 36.8 75.5686 38.1 75.6886 40.08H72.9686C72.8686 39.34 72.2286 39 71.3286 39C70.6486 39 70.0486 39.2 70.0486 39.7C70.0486 40.32 70.8886 40.44 72.1486 40.6C73.6486 40.78 75.8886 41.08 75.8886 43.78C75.8886 45.9 73.9286 47.2 71.3686 47.2C68.7286 47.2 67.1086 45.82 67.0086 43.64ZM82.422 47.2C79.282 47.2 77.182 45.08 77.182 41.96C77.182 38.84 79.282 36.8 82.422 36.8C85.562 36.8 87.662 38.84 87.662 41.96C87.662 45.08 85.562 47.2 82.422 47.2ZM80.182 41.96C80.182 43.64 81.022 44.68 82.422 44.68C83.822 44.68 84.662 43.64 84.662 41.96C84.662 40.28 83.822 39.32 82.422 39.32C81.022 39.32 80.182 40.28 80.182 41.96ZM89.7017 47V32.4H92.6217V47H89.7017ZM95.5025 47V37H98.4225V47H95.5025ZM95.4225 33.94C95.4225 32.98 96.0025 32.4 96.9625 32.4C97.9225 32.4 98.5025 32.98 98.5025 33.94C98.5025 34.9 97.9225 35.48 96.9625 35.48C96.0025 35.48 95.4225 34.9 95.4225 33.94ZM105.063 47.2C102.123 47.2 100.463 44.9 100.463 42C100.463 39.08 102.143 36.8 105.063 36.8C106.203 36.8 107.223 37.14 107.863 37.98V32.4H110.783V47H108.163L107.963 45.9C107.303 46.82 106.263 47.2 105.063 47.2ZM103.463 42C103.463 43.64 104.363 44.74 105.783 44.74C107.163 44.74 108.063 43.72 108.063 42C108.063 40.28 107.163 39.26 105.783 39.26C104.363 39.26 103.463 40.36 103.463 42ZM112.827 44.18C112.827 42.34 114.307 41.16 116.507 41.16H119.127V40.22C119.127 39.38 118.527 38.84 117.567 38.84C116.447 38.84 115.927 39.56 115.887 40.4H113.207C113.327 38.38 115.007 36.8 117.667 36.8C120.207 36.8 122.047 38.24 122.047 40.52V47H119.427L119.227 45.6C118.887 46.54 117.607 47.2 116.167 47.2C114.147 47.2 112.827 45.92 112.827 44.18ZM115.827 44.1C115.827 44.74 116.267 45.18 117.087 45.18C118.327 45.18 119.107 44.18 119.127 42.92H117.167C116.327 42.92 115.827 43.42 115.827 44.1ZM124.819 37H127.439L127.639 38.26C128.279 37.26 129.159 36.8 130.239 36.8C132.379 36.8 133.179 38.66 133.179 40.44C133.179 40.72 133.159 41.02 133.139 41.24H130.219C130.239 41.08 130.239 40.96 130.239 40.8C130.239 40.06 129.999 39.36 129.139 39.36C128.079 39.36 127.739 40.38 127.739 41.34V47H124.819V37ZM134.975 37H137.595L137.795 38.26C138.555 37.3 139.715 36.8 140.935 36.8C143.415 36.8 144.695 38.84 144.695 41.16V47H141.775V41.34C141.775 40 141.035 39.26 140.015 39.26C138.975 39.26 137.895 40 137.895 41.34V47H134.975V37ZM151.875 47.2C148.735 47.2 146.635 45.08 146.635 41.96C146.635 38.84 148.735 36.8 151.875 36.8C155.015 36.8 157.115 38.84 157.115 41.96C157.115 45.08 155.015 47.2 151.875 47.2ZM149.635 41.96C149.635 43.64 150.475 44.68 151.875 44.68C153.275 44.68 154.115 43.64 154.115 41.96C154.115 40.28 153.275 39.32 151.875 39.32C150.475 39.32 149.635 40.28 149.635 41.96ZM158.415 43.64H161.135C161.255 44.6 161.995 45 162.895 45C163.695 45 164.355 44.7 164.355 44.16C164.355 43.6 163.575 43.46 162.595 43.3C160.935 43.02 158.715 42.66 158.715 40C158.715 38.02 160.595 36.8 162.975 36.8C165.435 36.8 166.975 38.1 167.095 40.08H164.375C164.275 39.34 163.635 39 162.735 39C162.055 39 161.455 39.2 161.455 39.7C161.455 40.32 162.295 40.44 163.555 40.6C165.055 40.78 167.295 41.08 167.295 43.78C167.295 45.9 165.335 47.2 162.775 47.2C160.135 47.2 158.515 45.82 158.415 43.64ZM168.488 39.68V37H170.388L170.788 34.2H173.208V37H175.908V39.68H173.208V42.82C173.208 44.16 173.788 44.48 174.768 44.48C175.108 44.48 175.548 44.44 175.908 44.38V47.06C175.368 47.16 174.768 47.2 174.308 47.2C172.128 47.2 170.288 46.28 170.288 43.28V39.68H168.488Z" fill="black"/>
<defs>
<clipPath id="clip0_8_269">
<rect width="79" height="19" fill="white"/>
</clipPath>
</defs>
</svg>
